<svg width="292" height="292" viewBox="0 0 292 292" fill="none" xmlns="http://www.w3.org/2000/svg">
<rect width="292" height="292" fill="#D8D8D8"/>
<path d="M19 71H273V218H19V71Z" fill="#D8D8D8"/>
<path d="M29.76 199.976L43.008 197.816V92.984L29.76 90.968V87.8H74.976C89.184 87.8 99.744 90.824 106.656 96.872C113.568 102.92 117.024 111.656 117.024 123.08C117.024 134.504 113.568 143.24 106.656 149.288C99.744 155.336 89.184 158.36 74.976 158.36H58.848V197.816L72.096 199.976V203H29.76V199.976ZM72.96 154.904C90.72 154.904 99.6 145.256 99.6 125.96V120.2C99.6 101 90.72 91.4 72.96 91.4H58.848V154.904H72.96ZM188.102 204.44L145.19 92.984V194.216L159.014 199.976V203H128.198V199.976L141.734 194.216V92.984L128.486 90.968V87.8H160.31L196.453 180.248L233.318 87.8H262.406V90.968L249.158 92.984V197.816L262.406 199.976V203H220.07V199.976L233.318 197.816V97.304L190.694 204.44H188.102Z" fill="black"/>
</svg>
